<?xml version="1.0" encoding="UTF-8" standalone="no"?>
<!DOCTYPE svg PUBLIC "-//W3C//DTD SVG 1.1//EN" "http://www.w3.org/Graphics/SVG/1.1/DTD/svg11.dtd">
<svg width="100%" height="100%" viewBox="0 0 1204 360" version="1.1" xmlns="http://www.w3.org/2000/svg" xmlns:xlink="http://www.w3.org/1999/xlink" xml:space="preserve" xmlns:serif="http://www.serif.com/" style="fill-rule:evenodd;clip-rule:evenodd;stroke-linejoin:round;stroke-miterlimit:1.41421;">
    <g id="Plan-de-travail1" serif:id="Plan de travail1" transform="matrix(1,0,0,1.08313,2.74031,2.37656)">
        <rect x="-2.74" y="-2.194" width="1203.89" height="332.339" style="fill:none;"/>
        <g transform="matrix(0.771308,0,0,0.712107,-377.974,-362.889)">
            <g transform="matrix(2.15314,0,0,2.15314,-1514.45,363.517)">
                <path d="M1037.02,84.55C1046.52,84.875 1055.66,86.678 1064.2,89.736C1056.32,89.858 1047.23,92.436 1036.98,98.17C1007.43,114.696 1003.49,138.05 1006.01,161.753C1007.58,185.33 1014.88,209.301 1010.96,228.292C1015.09,226.119 1019.08,223.97 1022.93,221.842C1022.3,206.258 1018.07,188.772 1016.92,171.498C1014.39,147.795 1018.34,124.441 1047.89,107.915C1063.15,99.379 1075.82,97.837 1085.79,100.98C1108.93,117.348 1124.06,144.358 1124.06,174.881C1124.06,215.457 1097.33,249.825 1060.57,261.237C1078.23,245.765 1080.57,226.372 1078.48,206.741C1076.91,183.164 1069.61,128.976 1073.53,109.985C1069.4,112.158 1065.41,114.307 1061.56,116.435C1062.19,132.019 1066.42,179.721 1067.57,196.996C1070.1,220.698 1066.15,244.052 1036.6,260.579C1033.42,262.361 1030.34,263.839 1027.38,265.033C1018.89,264.424 1010.72,262.634 1003.03,259.825C1010.14,259.139 1018.14,256.54 1027.02,251.574C1056.57,235.048 1060.51,211.694 1057.98,187.991C1056.41,164.414 1049.12,140.443 1053.04,121.453C1048.9,123.625 1044.91,125.774 1041.07,127.902C1041.7,143.486 1045.92,160.972 1047.08,178.247C1049.6,201.949 1045.66,225.303 1016.11,241.829C1003.53,248.862 992.719,251.147 983.724,249.976C959.607,233.747 943.723,206.159 943.723,174.881C943.723,136.6 967.516,103.845 1001.08,90.679C985.563,105.773 983.523,124.28 985.518,143.003C987.087,166.58 994.386,220.768 990.464,239.759C994.599,237.586 998.589,235.437 1002.44,233.309C1001.8,217.725 997.577,170.023 996.427,152.748C993.901,129.046 997.842,105.692 1027.39,89.165C1030.72,87.301 1033.93,85.771 1037.02,84.55Z" style="fill:url(#_Linear1);"/>
            </g>
            <g transform="matrix(2.38447,0,0,2.38447,676.799,292.852)">
                <path d="M149.132,112.807C149.466,112.074 151.599,111.807 154.399,111.807C157.132,111.807 159.199,112.074 159.599,112.807L179.199,168.074C179.199,169.407 170.666,169.341 169.999,168.074L163.999,151.207L144.666,151.207L138.666,168.074C137.999,169.341 129.466,169.407 129.466,168.074L149.132,112.807ZM154.332,124.007L147.466,143.274L161.199,143.274L154.332,124.007Z" style="fill:rgb(255,82,61);fill-rule:nonzero;"/>
                <path d="M183.866,107.207C183.866,106.141 192.599,106.141 192.599,107.207L192.599,153.274C192.599,157.674 193.066,158.741 193.532,159.341C194.199,160.207 196.666,160.274 197.199,160.274C199.532,160.274 199.732,169.074 197.066,169.074C193.799,169.007 189.132,169.407 186.466,167.141C184.666,165.207 183.866,162.741 183.866,159.474L183.866,107.207Z" style="fill:rgb(255,82,61);fill-rule:nonzero;"/>
                <path d="M221.866,169.074C211.399,169.007 202.332,160.474 202.332,149.541L202.332,144.141C202.332,133.341 211.066,124.607 221.866,124.607L222.199,124.607C232.999,124.607 241.732,133.341 241.732,144.141L241.732,146.274C241.732,148.474 241.266,150.874 239.932,150.874L211.132,150.874C211.866,156.207 216.532,160.341 221.866,160.341L223.532,160.341C227.866,160.341 231.266,157.607 232.799,155.007C233.999,152.941 241.532,157.274 240.332,159.407C237.599,164.141 231.599,169.074 223.466,169.074L221.866,169.074ZM221.866,133.341C216.332,133.341 211.732,137.541 211.132,142.941L232.932,142.941C232.332,137.541 227.732,133.341 222.199,133.341L221.866,133.341Z" style="fill:rgb(255,82,61);fill-rule:nonzero;"/>
                <path d="M258.866,146.874L245.066,125.541C245.066,124.274 254.399,124.274 255.466,125.607L263.999,138.874L272.599,125.607C273.666,124.274 282.932,124.274 282.932,125.541L269.199,146.874L282.999,168.141C282.999,169.407 273.266,169.341 272.599,168.074L263.999,154.874L255.466,168.074C254.799,169.341 245.066,169.407 245.066,168.141L258.866,146.874Z" style="fill:rgb(255,82,61);fill-rule:nonzero;"/>
                <path d="M313.999,167.474C311.599,168.474 308.999,169.074 306.266,169.074L304.666,169.074C293.799,169.074 284.999,160.274 284.999,149.541L284.999,144.141C284.999,133.341 293.799,124.607 304.666,124.607C312.866,124.607 316.866,125.807 322.799,128.074L322.799,168.074C322.799,169.407 313.999,169.407 313.999,168.074L313.999,167.474ZM313.999,135.141C311.532,134.207 309.599,133.541 306.266,133.341L304.666,133.341C298.666,133.341 293.799,138.207 293.799,144.141L293.799,149.541C293.799,155.474 298.666,160.341 304.666,160.341L306.266,160.341C309.266,160.341 312.066,159.074 313.999,157.074L313.999,135.141Z" style="fill:rgb(255,82,61);fill-rule:nonzero;"/>
                <path d="M331.466,128.074C337.399,125.807 341.332,124.607 349.466,124.607C360.266,124.607 368.999,133.341 368.999,144.141L368.999,168.074C368.999,169.407 360.266,169.407 360.266,168.074L360.266,144.141C360.266,138.207 355.466,133.341 349.466,133.341L347.932,133.341C344.599,133.541 342.666,134.207 340.199,135.141L340.199,168.074C340.199,169.407 331.466,169.407 331.466,168.074L331.466,128.074Z" style="fill:rgb(255,82,61);fill-rule:nonzero;"/>
                <path d="M375.666,144.141C375.666,133.341 384.466,124.541 395.199,124.541C399.066,124.541 401.932,124.807 404.532,125.341L404.532,107.274C404.532,106.007 413.266,106.007 413.266,107.274L413.266,168.074C413.266,169.407 404.532,169.407 404.532,168.074L404.532,167.474C402.132,168.541 399.532,169.074 396.799,169.074L395.199,169.074C384.466,169.074 375.666,160.341 375.666,149.541L375.666,144.141ZM404.532,135.141C402.066,134.141 400.132,133.474 396.799,133.341L395.199,133.341C389.266,133.341 384.399,138.141 384.399,144.141L384.399,149.541C384.399,155.474 389.266,160.341 395.199,160.341L396.799,160.341C399.799,160.341 402.599,159.074 404.532,157.074L404.532,135.141Z" style="fill:rgb(255,82,61);fill-rule:nonzero;"/>
                <path d="M421.932,128.141C433.466,122.941 443.599,125.007 443.799,125.007C445.999,125.541 443.466,133.807 441.932,133.541C441.332,133.407 440.599,133.341 439.932,133.341L438.399,133.341C435.066,133.541 433.066,134.207 430.666,135.141L430.666,168.074C430.666,169.407 421.932,169.407 421.932,168.074L421.932,128.141Z" style="fill:rgb(255,82,61);fill-rule:nonzero;"/>
                <path d="M466.199,169.074C455.732,169.007 446.666,160.474 446.666,149.541L446.666,144.141C446.666,133.341 455.399,124.607 466.199,124.607L466.532,124.607C477.332,124.607 486.066,133.341 486.066,144.141L486.066,146.274C486.066,148.474 485.599,150.874 484.266,150.874L455.466,150.874C456.199,156.207 460.866,160.341 466.199,160.341L467.866,160.341C472.199,160.341 475.599,157.607 477.132,155.007C478.332,152.941 485.866,157.274 484.666,159.407C481.932,164.141 475.932,169.074 467.799,169.074L466.199,169.074ZM466.199,133.341C460.666,133.341 456.066,137.541 455.466,142.941L477.266,142.941C476.666,137.541 472.066,133.341 466.532,133.341L466.199,133.341Z" style="fill:rgb(255,82,61);fill-rule:nonzero;"/>
            </g>
            <g transform="matrix(2.38447,0,0,2.38447,676.799,489.027)">
                <path d="M129.466,112.541C129.466,112.074 131.399,111.874 133.399,111.807L164.399,111.807C166.799,111.807 166.799,119.674 164.399,119.674L138.132,119.674L138.132,136.407L161.332,136.407C163.732,136.407 163.732,144.274 161.332,144.274L138.132,144.274L138.132,168.341C138.132,169.341 129.466,169.341 129.466,168.341L129.466,112.541Z" style="fill:rgb(255,82,61);fill-rule:nonzero;"/>
                <path d="M169.532,144.141C169.532,133.341 178.266,124.607 189.066,124.607L190.599,124.607C201.399,124.607 210.132,133.341 210.132,144.141L210.132,149.541C210.132,160.341 201.399,169.074 190.599,169.074L189.066,169.074C178.266,169.074 169.532,160.341 169.532,149.541L169.532,144.141ZM201.399,144.141C201.399,138.207 196.599,133.341 190.599,133.341L189.066,133.341C183.066,133.341 178.266,138.207 178.266,144.141L178.266,149.541C178.266,155.474 183.066,160.341 189.066,160.341L190.599,160.341C196.599,160.341 201.399,155.474 201.399,149.541L201.399,144.141Z" style="fill:rgb(255,82,61);fill-rule:nonzero;"/>
                <path d="M215.466,113.141C215.466,110.074 217.932,107.674 220.932,107.674L221.532,107.674C224.532,107.674 226.999,110.074 226.999,113.141L226.999,115.074C226.999,118.141 224.532,120.607 221.532,120.607L220.932,120.607C217.932,120.607 215.466,118.141 215.466,115.074L215.466,113.141ZM216.866,125.341C216.866,124.341 225.599,124.341 225.599,125.341L225.599,168.341C225.599,169.341 216.866,169.341 216.866,168.341L216.866,125.341Z" style="fill:rgb(255,82,61);fill-rule:nonzero;"/>
                <path d="M245.932,150.207L245.799,150.141C244.399,150.074 241.599,149.607 239.066,148.007C236.199,146.141 233.799,142.874 233.732,138.007C233.799,132.807 236.332,129.207 239.866,127.074C243.066,125.141 246.866,124.607 249.866,124.607C255.332,124.674 259.999,125.874 263.332,127.341C265.532,128.341 261.999,136.407 259.799,135.407C257.466,134.407 253.999,133.407 249.866,133.341C247.732,133.407 245.666,133.807 244.332,134.607C243.266,135.274 242.532,136.141 242.532,138.007C242.532,139.541 243.132,140.207 243.799,140.607C244.732,141.207 245.866,141.341 246.132,141.407L246.399,141.407C248.532,141.541 252.866,141.407 256.666,142.741C261.399,144.341 265.199,148.207 265.199,155.341C265.066,161.541 261.599,166.207 255.466,168.141C249.866,169.807 242.332,169.141 233.266,166.607C230.932,165.941 233.332,157.474 235.666,158.141C244.132,160.541 249.732,160.607 252.866,159.674C255.466,158.874 256.399,157.474 256.399,155.207C256.399,153.541 255.999,152.674 255.666,152.274C255.332,151.807 254.799,151.341 253.799,151.007C252.799,150.674 251.532,150.474 250.066,150.341C249.266,150.274 248.532,150.274 247.866,150.207L245.932,150.207Z" style="fill:rgb(255,82,61);fill-rule:nonzero;"/>
                <path d="M284.266,168.274C283.132,168.074 282.332,167.807 282.199,167.474L269.866,126.407C269.266,124.474 279.066,124.007 279.666,125.607L288.932,156.541L301.132,125.674C301.799,124.007 311.532,124.474 310.799,126.407L287.532,185.341C286.732,187.541 277.732,184.874 278.466,182.941L284.266,168.274Z" style="fill:rgb(255,82,61);fill-rule:nonzero;"/>
            </g>
            <g transform="matrix(0.887029,0,0,0.960861,1371.08,728.706)">
                <rect x="130.449" y="127.424" width="4.317" height="41.65" style="fill:rgb(157,150,141);fill-rule:nonzero;"/>
                <path d="M142.932,169.074L147.249,169.074L147.249,133.491L147.366,133.491L176.649,169.074L181.666,169.074L181.666,127.424L177.349,127.424L177.349,163.007L177.232,163.007L148.124,127.424L142.932,127.424L142.932,169.074Z" style="fill:rgb(157,150,141);fill-rule:nonzero;"/>
                <path d="M201.732,169.074L206.049,169.074L206.049,131.391L222.382,131.391L222.382,127.424L185.399,127.424L185.399,131.391L201.732,131.391L201.732,169.074Z" style="fill:rgb(157,150,141);fill-rule:nonzero;"/>
                <path d="M226.816,169.074L260.416,169.074L260.416,165.107L231.132,165.107L231.132,149.474L258.899,149.474L258.899,145.507L231.132,145.507L231.132,131.391L259.949,131.391L259.949,127.424L226.816,127.424L226.816,169.074ZM238.541,125.207L242.099,125.207L250.557,116.924L245.249,116.924L238.541,125.207Z" style="fill:rgb(157,150,141);fill-rule:nonzero;"/>
                <path d="M304.749,169.074L308.074,169.074L308.074,147.607L288.824,147.607L288.824,151.574L304.107,151.574C302.824,159.041 298.857,166.157 286.374,166.157C275.291,166.157 269.574,159.449 269.574,148.249C269.574,137.282 275.816,130.341 287.191,130.341C294.657,130.341 300.957,133.549 302.649,140.607L307.316,140.607C306.207,132.907 298.799,126.374 287.191,126.374C273.366,126.374 264.907,135.649 264.907,148.249C264.907,161.257 272.607,170.124 286.724,170.124C294.891,170.124 299.791,167.324 304.049,161.199L304.166,161.199L304.749,169.074Z" style="fill:rgb(157,150,141);fill-rule:nonzero;"/>
                <path d="M316.474,169.074L320.791,169.074L320.791,150.757L337.532,150.757C344.707,150.757 347.507,153.207 347.624,160.557C347.682,165.107 347.974,168.199 348.732,169.074L353.399,169.074C352.407,168.141 352.057,163.066 351.941,160.441C351.649,153.616 350.424,149.824 344.532,148.891L344.532,148.774C349.957,147.549 352.699,143.116 352.699,138.682C352.699,129.932 346.224,127.424 339.166,127.424L316.474,127.424L316.474,169.074ZM320.791,131.391L339.457,131.391C343.424,131.391 348.032,132.557 348.032,138.682C348.032,145.041 343.774,146.791 339.049,146.791L320.791,146.791L320.791,131.391Z" style="fill:rgb(157,150,141);fill-rule:nonzero;"/>
                <path d="M385.307,152.449L366.874,152.449L376.149,131.741L385.307,152.449ZM392.599,169.074L397.616,169.074L378.716,127.424L373.699,127.424L354.799,169.074L359.466,169.074L365.124,156.416L387.057,156.416L392.599,169.074Z" style="fill:rgb(157,150,141);fill-rule:nonzero;"/>
                <path d="M410.274,169.074L414.591,169.074L414.591,131.391L430.924,131.391L430.924,127.424L393.941,127.424L393.941,131.391L410.274,131.391L410.274,169.074Z" style="fill:rgb(157,150,141);fill-rule:nonzero;"/>
                <path d="M435.357,169.074L468.957,169.074L468.957,165.107L439.674,165.107L439.674,149.474L467.441,149.474L467.441,145.507L439.674,145.507L439.674,131.391L468.491,131.391L468.491,127.424L435.357,127.424L435.357,169.074Z" style="fill:rgb(157,150,141);fill-rule:nonzero;"/>
                <path d="M512.066,127.424L507.749,127.424L507.749,152.974C507.749,163.882 500.691,166.157 493.457,166.157C486.224,166.157 479.166,163.882 479.166,152.974L479.166,127.424L474.849,127.424L474.849,152.974C474.849,160.557 476.949,170.124 493.457,170.124C509.966,170.124 512.066,160.557 512.066,152.974L512.066,127.424Z" style="fill:rgb(157,150,141);fill-rule:nonzero;"/>
                <path d="M520.699,169.074L525.016,169.074L525.016,150.757L541.757,150.757C548.932,150.757 551.732,153.207 551.849,160.557C551.907,165.107 552.199,168.199 552.957,169.074L557.624,169.074C556.632,168.141 556.282,163.066 556.166,160.441C555.874,153.616 554.649,149.824 548.757,148.891L548.757,148.774C554.182,147.549 556.924,143.116 556.924,138.682C556.924,129.932 550.449,127.424 543.391,127.424L520.699,127.424L520.699,169.074ZM525.016,131.391L543.682,131.391C547.649,131.391 552.257,132.557 552.257,138.682C552.257,145.041 547.999,146.791 543.274,146.791L525.016,146.791L525.016,131.391Z" style="fill:rgb(157,150,141);fill-rule:nonzero;"/>
                <path d="M621.499,163.357L621.382,163.357L609.074,127.424L603.766,127.424L591.457,163.357L591.341,163.357L579.791,127.424L574.949,127.424L588.774,169.074L593.791,169.074L606.157,133.491L606.274,133.491L618.816,169.074L623.832,169.074L637.832,127.424L633.166,127.424L621.499,163.357Z" style="fill:rgb(157,150,141);fill-rule:nonzero;"/>
                <path d="M641.741,169.074L675.341,169.074L675.341,165.107L646.057,165.107L646.057,149.474L673.824,149.474L673.824,145.507L646.057,145.507L646.057,131.391L674.874,131.391L674.874,127.424L641.741,127.424L641.741,169.074Z" style="fill:rgb(157,150,141);fill-rule:nonzero;"/>
                <path d="M680.999,169.074L704.157,169.074C710.574,169.074 717.924,165.866 717.924,157.174C717.924,151.807 714.599,147.782 709.116,146.966L709.116,146.849C714.074,145.682 716.291,141.949 716.291,137.924C716.291,132.032 712.849,127.424 704.682,127.424L680.999,127.424L680.999,169.074ZM685.316,131.391L703.866,131.391C708.591,131.391 711.974,133.024 711.974,138.099C711.974,143.641 708.241,145.507 702.407,145.507L685.316,145.507L685.316,131.391ZM685.316,149.474L704.507,149.474C709.524,149.474 713.257,151.166 713.257,157.174C713.257,162.891 709.057,165.107 703.457,165.107L685.316,165.107L685.316,149.474Z" style="fill:rgb(157,150,141);fill-rule:nonzero;"/>
            </g>
            <g transform="matrix(1.68438,0,0,1.13189,1238.2,642.987)">
                <rect x="131.149" y="126.374" width="2.917" height="92.713" style="fill:rgb(157,150,141);fill-rule:nonzero;"/>
            </g>
            <g transform="matrix(0.887029,0,0,0.960861,1371.74,663.62)">
                <path d="M168.657,169.074L171.982,169.074L171.982,147.607L152.732,147.607L152.732,151.574L168.016,151.574C166.732,159.041 162.766,166.157 150.282,166.157C139.199,166.157 133.482,159.449 133.482,148.249C133.482,137.282 139.724,130.341 151.099,130.341C158.566,130.341 164.866,133.549 166.557,140.607L171.224,140.607C170.116,132.907 162.707,126.374 151.099,126.374C137.274,126.374 128.816,135.649 128.816,148.249C128.816,161.257 136.516,170.124 150.632,170.124C158.799,170.124 163.699,167.324 167.957,161.199L168.074,161.199L168.657,169.074Z" style="fill:rgb(157,150,141);fill-rule:nonzero;"/>
                <path d="M180.382,169.074L184.699,169.074L184.699,150.757L201.441,150.757C208.616,150.757 211.416,153.207 211.532,160.557C211.591,165.107 211.882,168.199 212.641,169.074L217.307,169.074C216.316,168.141 215.966,163.066 215.849,160.441C215.557,153.616 214.332,149.824 208.441,148.891L208.441,148.774C213.866,147.549 216.607,143.116 216.607,138.682C216.607,129.932 210.132,127.424 203.074,127.424L180.382,127.424L180.382,169.074ZM184.699,131.391L203.366,131.391C207.332,131.391 211.941,132.557 211.941,138.682C211.941,145.041 207.682,146.791 202.957,146.791L184.699,146.791L184.699,131.391Z" style="fill:rgb(157,150,141);fill-rule:nonzero;"/>
                <path d="M249.216,152.449L230.782,152.449L240.057,131.741L249.216,152.449ZM256.507,169.074L261.524,169.074L242.624,127.424L237.607,127.424L218.707,169.074L223.374,169.074L229.032,156.416L250.966,156.416L256.507,169.074Z" style="fill:rgb(157,150,141);fill-rule:nonzero;"/>
                <path d="M270.041,131.391L287.599,131.391C292.557,131.391 296.057,133.199 296.057,139.441C296.057,144.282 293.957,147.607 286.724,147.607L270.041,147.607L270.041,131.391ZM265.724,169.074L270.041,169.074L270.041,151.574L286.257,151.574C295.532,151.574 300.724,147.316 300.724,139.441C300.724,130.632 294.599,127.424 288.182,127.424L265.724,127.424L265.724,169.074Z" style="fill:rgb(157,150,141);fill-rule:nonzero;"/>
                <path d="M306.091,169.074L310.407,169.074L310.407,149.007L340.507,149.007L340.507,169.074L344.824,169.074L344.824,127.424L340.507,127.424L340.507,145.041L310.407,145.041L310.407,127.424L306.091,127.424L306.091,169.074Z" style="fill:rgb(157,150,141);fill-rule:nonzero;"/>
                <rect x="352.991" y="127.424" width="4.317" height="41.65" style="fill:rgb(157,150,141);fill-rule:nonzero;"/>
                <path d="M398.024,139.324C397.732,129.407 389.157,126.374 380.641,126.374C372.591,126.374 364.191,129.349 364.191,138.449C364.191,145.157 369.499,147.957 379.416,149.532C386.999,150.757 394.582,151.516 394.582,157.874C394.582,164.466 388.107,166.157 381.866,166.157C373.874,166.157 368.041,164.057 367.282,155.307L362.966,155.307C363.607,166.507 371.307,170.124 381.866,170.124C389.974,170.124 399.249,167.324 399.249,157.116C399.249,149.124 391.666,147.374 384.082,146.091C373.932,144.399 368.857,143.116 368.857,137.691C368.857,132.966 373.932,130.341 380.641,130.341C387.349,130.341 393.124,132.207 393.707,139.324L398.024,139.324Z" style="fill:rgb(157,150,141);fill-rule:nonzero;"/>
                <path d="M416.807,169.074L421.124,169.074L421.124,131.391L437.457,131.391L437.457,127.424L400.474,127.424L400.474,131.391L416.807,131.391L416.807,169.074Z" style="fill:rgb(157,150,141);fill-rule:nonzero;"/>
                <path d="M441.891,169.074L475.491,169.074L475.491,165.107L446.207,165.107L446.207,149.474L473.974,149.474L473.974,145.507L446.207,145.507L446.207,131.391L475.024,131.391L475.024,127.424L441.891,127.424L441.891,169.074Z" style="fill:rgb(157,150,141);fill-rule:nonzero;"/>
            </g>
        </g>
    </g>
    <defs>
        <linearGradient id="_Linear1" x1="0" y1="0" x2="1" y2="0" gradientUnits="userSpaceOnUse" gradientTransform="matrix(61.6844,133.899,-133.899,61.6844,995.991,131.291)"><stop offset="0" style="stop-color:rgb(255,181,0);stop-opacity:1"/><stop offset="1" style="stop-color:rgb(255,82,61);stop-opacity:1"/></linearGradient>
    </defs>
</svg>
