<?xml version="1.0" encoding="utf-8"?>
<!-- Generator: Adobe Illustrator 22.1.0, SVG Export Plug-In . SVG Version: 6.00 Build 0)  -->
<svg version="1.1" id="Calque_1" xmlns:serif="http://www.serif.com/"
	 xmlns="http://www.w3.org/2000/svg" xmlns:xlink="http://www.w3.org/1999/xlink" x="0px" y="0px" viewBox="0 0 599 182.9"
	 style="enable-background:new 0 0 599 182.9;" xml:space="preserve">
<style type="text/css">
	.st0{fill:none;}
	.st1{fill:url(#SVGID_1_);}
	.st2{fill:#FF523D;}
	.st3{fill:#9D968D;}
</style>
<g id="Plan-de-travail1" transform="matrix(1,0,0,1.08313,2.74031,2.37656)" serif:id="Plan de travail1">
	<rect x="-2.7" y="-2.2" class="st0" width="611.9" height="168.9"/>
	<g transform="matrix(0.771308,0,0,0.712107,-377.974,-362.889)">
		<g transform="matrix(2.15314,0,0,2.15314,-1514.45,363.517)">
			
				<linearGradient id="SVGID_1_" gradientUnits="userSpaceOnUse" x1="1807.6797" y1="340.3449" x2="1808.6797" y2="340.3449" gradientTransform="matrix(143.6151 311.7474 311.7428 -143.6133 -364739.4688 -514565.375)">
				<stop  offset="0" style="stop-color:#FFB500"/>
				<stop  offset="1" style="stop-color:#FF523D"/>
			</linearGradient>
			<path class="st1" d="M984.1,75.7c4.8,0.2,9.5,1.1,13.8,2.6c-4,0.1-8.6,1.4-13.8,4.3c-15,8.4-17,20.3-15.7,32.3
				c0.8,12,4.5,24.2,2.5,33.8c2.1-1.1,4.1-2.2,6.1-3.3c-0.3-7.9-2.5-16.8-3.1-25.6c-1.3-12,0.7-23.9,15.7-32.3
				c7.8-4.3,14.2-5.1,19.3-3.5c11.8,8.3,19.5,22,19.5,37.6c0,20.6-13.6,38.1-32.3,43.9c9-7.9,10.2-17.7,9.1-27.7
				c-0.8-12-4.5-39.5-2.5-49.2c-2.1,1.1-4.1,2.2-6.1,3.3c0.3,7.9,2.5,32.2,3.1,40.9c1.3,12-0.7,23.9-15.7,32.3
				c-1.6,0.9-3.2,1.7-4.7,2.3c-4.3-0.3-8.5-1.2-12.4-2.6c3.6-0.3,7.7-1.7,12.2-4.2c15-8.4,17-20.3,15.7-32.3
				c-0.8-12-4.5-24.2-2.5-33.8c-2.1,1.1-4.1,2.2-6.1,3.3c0.3,7.9,2.5,16.8,3.1,25.6c1.3,12-0.7,23.9-15.7,32.3
				c-6.4,3.6-11.9,4.7-16.5,4.1c-12.3-8.2-20.3-22.3-20.3-38.2c0-19.5,12.1-36.1,29.2-42.8c-7.9,7.7-8.9,17.1-7.9,26.6
				c0.8,12,4.5,39.5,2.5,49.2c2.1-1.1,4.1-2.2,6.1-3.3c-0.3-7.9-2.5-32.2-3.1-40.9c-1.3-12,0.7-23.9,15.7-32.3
				C980.9,77.1,982.5,76.3,984.1,75.7z"/>
		</g>
		<g transform="matrix(2.38447,0,0,2.38447,676.799,292.852)">
			<path class="st2" d="M36.6,101.5c0.2-0.4,1.3-0.5,2.7-0.5s2.4,0.1,2.6,0.5l10,28.1c0,0.7-4.3,0.6-4.7,0l-3-8.6h-9.8l-3,8.6
				c-0.3,0.6-4.7,0.7-4.7,0L36.6,101.5z M39.2,107.2l-3.5,9.8h7L39.2,107.2z"/>
			<path class="st2" d="M54.2,98.6c0-0.5,4.4-0.5,4.4,0V122c0,2.2,0.2,2.8,0.5,3.1c0.3,0.4,1.6,0.5,1.9,0.5c1.2,0,1.3,4.5-0.1,4.5
				c-1.7,0-4,0.2-5.4-1c-0.9-1-1.3-2.2-1.3-3.9C54.2,125.2,54.2,98.6,54.2,98.6z"/>
			<path class="st2" d="M73.5,130.1c-5.3,0-9.9-4.4-9.9-9.9v-2.7c0-5.5,4.4-9.9,9.9-9.9h0.2c5.5,0,9.9,4.4,9.9,9.9v1.1
				c0,1.1-0.2,2.3-0.9,2.3H68.1c0.4,2.7,2.7,4.8,5.5,4.8h0.8c2.2,0,3.9-1.4,4.7-2.7c0.6-1.1,4.4,1.2,3.8,2.2
				c-1.4,2.4-4.4,4.9-8.6,4.9H73.5L73.5,130.1z M73.5,111.9c-2.8,0-5.2,2.1-5.5,4.9h11.1C78.8,114.1,76.5,111.9,73.5,111.9
				L73.5,111.9z"/>
			<path class="st2" d="M92.3,118.8l-7-10.8c0-0.6,4.7-0.6,5.3,0l4.3,6.7l4.4-6.7c0.5-0.7,5.3-0.7,5.3,0l-7,10.8l7,10.8
				c0,0.6-4.9,0.6-5.3,0l-4.4-6.7l-4.3,6.7c-0.3,0.6-5.3,0.7-5.3,0L92.3,118.8z"/>
			<path class="st2" d="M120.4,129.3c-1.2,0.5-2.5,0.8-3.9,0.8h-0.8c-5.5,0-10-4.5-10-9.9v-2.7c0-5.5,4.5-9.9,10-9.9
				c4.2,0,6.2,0.6,9.2,1.8v20.3c0,0.7-4.5,0.7-4.5,0L120.4,129.3L120.4,129.3z M120.4,112.8c-1.3-0.5-2.2-0.8-3.9-0.9h-0.8
				c-3,0-5.5,2.5-5.5,5.5v2.7c0,3,2.5,5.5,5.5,5.5h0.8c1.5,0,2.9-0.6,3.9-1.7V112.8z"/>
			<path class="st2" d="M129.2,109.2c3-1.2,5-1.8,9.1-1.8c5.5,0,9.9,4.4,9.9,9.9v12.2c0,0.7-4.4,0.7-4.4,0v-12.2
				c0-3-2.4-5.5-5.5-5.5h-0.8c-1.7,0.1-2.7,0.4-3.9,0.9v16.7c0,0.7-4.4,0.7-4.4,0L129.2,109.2L129.2,109.2z"/>
			<path class="st2" d="M151.7,117.4c0-5.5,4.5-10,9.9-10c2,0,3.4,0.1,4.7,0.4v-9.2c0-0.6,4.4-0.6,4.4,0v30.9c0,0.7-4.4,0.7-4.4,0
				v-0.3c-1.2,0.5-2.5,0.8-3.9,0.8h-0.8c-5.5,0-9.9-4.4-9.9-9.9V117.4z M166.4,112.8c-1.3-0.5-2.2-0.8-3.9-0.9h-0.8
				c-3,0-5.5,2.4-5.5,5.5v2.7c0,3,2.5,5.5,5.5,5.5h0.8c1.5,0,2.9-0.6,3.9-1.7V112.8z"/>
			<path class="st2" d="M175.2,109.3c5.9-2.6,11-1.6,11.1-1.6c1.1,0.3-0.2,4.5-0.9,4.3c-0.3-0.1-0.7-0.1-1-0.1h-0.8
				c-1.7,0.1-2.7,0.4-3.9,0.9v16.7c0,0.7-4.4,0.7-4.4,0v-20.2L175.2,109.3L175.2,109.3z"/>
			<path class="st2" d="M197.7,130.1c-5.3,0-9.9-4.4-9.9-9.9v-2.7c0-5.5,4.4-9.9,9.9-9.9h0.2c5.5,0,9.9,4.4,9.9,9.9v1.1
				c0,1.1-0.2,2.3-0.9,2.3h-14.6c0.4,2.7,2.7,4.8,5.5,4.8h0.8c2.2,0,3.9-1.4,4.7-2.7c0.6-1.1,4.4,1.2,3.8,2.2
				c-1.4,2.4-4.4,4.9-8.6,4.9H197.7L197.7,130.1z M197.7,111.9c-2.8,0-5.2,2.1-5.5,4.9h11.1c-0.3-2.7-2.6-4.9-5.5-4.9H197.7z"/>
		</g>
		<g transform="matrix(2.38447,0,0,2.38447,676.799,489.027)">
			<path class="st2" d="M26.6,60.9c0-0.2,1-0.3,2-0.4h15.8c1.2,0,1.2,4,0,4H31V73h11.8c1.2,0,1.2,4,0,4H31v12.2c0,0.5-4.4,0.5-4.4,0
				V60.9z"/>
			<path class="st2" d="M46.9,76.9c0-5.5,4.4-9.9,9.9-9.9h0.8c5.5,0,9.9,4.4,9.9,9.9v2.7c0,5.5-4.4,9.9-9.9,9.9h-0.8
				c-5.5,0-9.9-4.4-9.9-9.9V76.9z M63.1,76.9c0-3-2.4-5.5-5.5-5.5h-0.8c-3,0-5.5,2.5-5.5,5.5v2.7c0,3,2.4,5.5,5.5,5.5h0.8
				c3,0,5.5-2.5,5.5-5.5V76.9z"/>
			<path class="st2" d="M70.3,61.2c0-1.6,1.3-2.8,2.8-2.8h0.3c1.5,0,2.8,1.2,2.8,2.8v1c0,1.6-1.3,2.8-2.8,2.8h-0.3
				c-1.5,0-2.8-1.3-2.8-2.8V61.2z M71,67.4c0-0.5,4.4-0.5,4.4,0v21.9c0,0.5-4.4,0.5-4.4,0V67.4z"/>
			<path class="st2" d="M85.8,80L85.8,80c-0.8-0.1-2.2-0.3-3.5-1.1c-1.5-0.9-2.7-2.6-2.7-5.1c0-2.6,1.3-4.5,3.1-5.6
				c1.6-1,3.6-1.3,5.1-1.3c2.8,0,5.2,0.6,6.8,1.4c1.1,0.5-0.7,4.6-1.8,4.1c-1.2-0.5-2.9-1-5-1.1c-1.1,0-2.1,0.2-2.8,0.6
				c-0.5,0.3-0.9,0.8-0.9,1.7c0,0.8,0.3,1.1,0.6,1.3c0.5,0.3,1.1,0.4,1.2,0.4H86c1.1,0.1,3.3,0,5.2,0.7c2.4,0.8,4.3,2.8,4.3,6.4
				c-0.1,3.2-1.8,5.5-4.9,6.5c-2.8,0.8-6.7,0.5-11.3-0.8c-1.2-0.3,0-4.6,1.2-4.3c4.3,1.2,7.1,1.3,8.7,0.8c1.3-0.4,1.8-1.1,1.8-2.3
				c0-0.8-0.2-1.3-0.4-1.5c-0.2-0.2-0.4-0.5-0.9-0.6c-0.5-0.2-1.2-0.3-1.9-0.3c-0.4,0-0.8,0-1.1-0.1h-0.9L85.8,80L85.8,80z"/>
			<path class="st2" d="M105.3,89.2c-0.6-0.1-1-0.2-1.1-0.4l-6.3-20.9c-0.3-1,4.7-1.2,5-0.4l4.7,15.7l6.2-15.7
				c0.3-0.8,5.3-0.6,4.9,0.4l-11.8,30c-0.4,1.1-5-0.2-4.6-1.2L105.3,89.2z"/>
		</g>
		<g transform="matrix(1.68438,0,0,1.13189,1238.2,642.987)">
			<rect x="-152.8" y="5.1" class="st3" width="1.5" height="47.1"/>
		</g>
		<g transform="matrix(0.887029,0,0,0.960861,1371.74,663.62)">
			<path class="st3" d="M-385.5,28.2h2.5V11.8h-14.7v3.1h11.8c-0.9,5.8-4,11.2-13.7,11.2c-8.4,0-12.9-5.1-12.9-13.8
				c0-8.4,4.8-13.8,13.5-13.8c5.8,0,10.6,2.4,11.9,7.9h3.6c-0.8-5.9-6.6-11-15.4-11c-10.6,0-17.1,7.1-17.1,16.7
				c0,9.9,5.9,16.7,16.7,16.7c6.3,0,10-2.1,13.3-6.8h0.1L-385.5,28.2z"/>
			<path class="st3" d="M-376.5,28.2h3.3V14.2h12.9c5.5,0,7.6,1.9,7.8,7.5c0,3.5,0.3,5.9,0.8,6.6h3.6c-0.8-0.7-1.1-4.6-1.1-6.6
				c-0.3-5.2-1.2-8.2-5.6-8.8v-0.1c4.2-0.9,6.3-4.3,6.3-7.8c0-6.7-5-8.6-10.4-8.6h-17.4v31.9C-376.4,28.2-376.5,28.2-376.5,28.2z
				 M-373.2-0.7h14.3c3.1,0,6.6,0.9,6.6,5.6c0,4.8-3.2,6.2-6.8,6.2h-14.1V-0.7z"/>
			<path class="st3" d="M-323.7,15.5h-14.2l7.1-15.9L-323.7,15.5z M-318.1,28.2h3.9l-14.5-32h-3.9l-14.5,32h3.6l4.3-9.6h16.9
				L-318.1,28.2z"/>
			<path class="st3" d="M-307.8-0.7h13.5c3.7,0,6.4,1.3,6.4,6.2c0,3.7-1.6,6.3-7.1,6.3h-12.9V-0.7z M-311,28.2h3.3V14.9h12.5
				c7.1,0,11.1-3.2,11.1-9.2c0-6.7-4.7-9.2-9.6-9.2H-311L-311,28.2L-311,28.2z"/>
			<path class="st3" d="M-280.1,28.2h3.3V12.9h23v15.4h3.3v-32h-3.3V9.8h-23V-3.7h-3.3V28.2z"/>
			<rect x="-244.1" y="-3.6" class="st3" width="3.3" height="32"/>
			<path class="st3" d="M-209.7,5.5c-0.3-7.6-6.8-9.9-13.4-9.9c-6.2,0-12.6,2.3-12.6,9.2c0,5.1,4,7.2,11.6,8.4
				c5.8,0.9,11.6,1.5,11.6,6.4c0,5.1-5,6.3-9.8,6.3c-6.2,0-10.6-1.6-11.2-8.3h-3.3c0.5,8.6,6.4,11.4,14.5,11.4
				c6.2,0,13.4-2.1,13.4-9.9c0-6.2-5.8-7.5-11.6-8.4c-7.8-1.3-11.6-2.3-11.6-6.4c0-3.6,3.9-5.6,9-5.6c5.1,0,9.5,1.5,10,6.8
				C-213.2,5.5-209.7,5.5-209.7,5.5z"/>
			<path class="st3" d="M-195.2,28.2h3.3V-0.7h12.6v-3.1h-28.4v3.1h12.6L-195.2,28.2L-195.2,28.2z"/>
			<path class="st3" d="M-175.9,28.2h25.7v-3.1h-22.5v-12h21.3V10h-21.3V-0.8h22.1v-3.1h-25.4v32.1H-175.9z"/>
		</g>
	</g>
</g>
</svg>
