<?xml version="1.0" encoding="utf-8"?>
<!-- Generator: Adobe Illustrator 22.1.0, SVG Export Plug-In . SVG Version: 6.00 Build 0)  -->
<svg version="1.1" id="Calque_1" xmlns="http://www.w3.org/2000/svg" xmlns:xlink="http://www.w3.org/1999/xlink" x="0px" y="0px"
	 viewBox="0 0 300 209" style="enable-background:new 0 0 300 209;" xml:space="preserve">
<style type="text/css">
	.st0{clip-path:url(#SVGID_2_);fill:#333740;}
	.st1{clip-path:url(#SVGID_2_);fill:#00B5C8;}
	.st2{fill:#333740;}
	.st3{clip-path:url(#SVGID_4_);fill:#FFFFFF;}
</style>
<g>
	<g>
		<defs>
			<rect id="SVGID_1_" x="5.6" y="3.6" width="288.4" height="200.4"/>
		</defs>
		<clipPath id="SVGID_2_">
			<use xlink:href="#SVGID_1_"  style="overflow:visible;"/>
		</clipPath>
		<path class="st0" d="M276.8,25.2c1.8-1.6,3.7-2.4,5.7-2.4c2,0,3.5,0.6,4.3,1.8c0.8,1.2,1.2,2.6,1.2,4.3c0,0.5,0,1-0.1,1.5
			c-0.1,0.5-0.1,0.9-0.2,1.4h-14.8C273.7,28.9,275,26.7,276.8,25.2 M266.1,43.7c0.7,1.7,1.6,3.2,2.8,4.4c1.2,1.2,2.6,2.1,4.2,2.7
			c1.6,0.6,3.4,0.9,5.4,0.9c2.4,0,4.6-0.3,6.5-1c1.9-0.7,3.6-1.5,4.9-2.4l-2.7-4.6c-0.9,0.7-2,1.3-3.2,1.8c-1.2,0.5-2.4,0.8-3.6,0.8
			c-1.3,0-2.4-0.2-3.5-0.6c-1.1-0.4-2-1-2.8-1.8c-0.7-0.8-1.3-1.8-1.7-3.1c-0.4-1.3-0.5-2.8-0.3-4.5h20.3c0.2-0.5,0.5-1.5,0.9-2.8
			c0.4-1.3,0.5-2.7,0.5-4.2c0-1.7-0.2-3.3-0.6-4.8c-0.4-1.5-1-2.8-1.8-3.9c-0.8-1.1-1.9-2-3.3-2.6c-1.3-0.6-3-0.9-4.9-0.9
			c-2.2,0-4.4,0.5-6.5,1.5c-2.2,1-4.1,2.4-5.9,4.2c-1.7,1.8-3.2,4-4.2,6.5c-1.1,2.5-1.6,5.3-1.6,8.4C265.2,40,265.5,42,266.1,43.7
			 M247.4,51l3.9-19.9c1.4-2.5,2.8-4.4,4.4-5.6c1.5-1.2,3.1-1.8,4.7-1.8c0.6,0,1.2,0,1.7,0.1c0.5,0.1,1,0.2,1.4,0.4l2.4-6.3
			c-0.9-0.4-2-0.6-3.3-0.6c-2,0-3.9,0.7-5.7,2c-1.8,1.4-3.3,3.1-4.6,5.1H252l0.6-6.4h-5.9L240.1,51H247.4z M213.1,44.1
			c-0.9-1.2-1.3-3-1.3-5.4c0-2.1,0.3-4.1,0.9-6c0.6-1.9,1.4-3.6,2.4-5c1-1.4,2.2-2.6,3.5-3.4c1.3-0.8,2.7-1.2,4.1-1.2
			c1,0,2.1,0.3,3,0.9c1,0.6,1.8,1.7,2.6,3.1l-2.7,13.2c-1.4,2-2.9,3.4-4.4,4.3c-1.5,0.8-3,1.3-4.4,1.3
			C215.2,45.9,214,45.3,213.1,44.1 M229.5,21.6c-0.7-1.3-1.7-2.3-3-3.2c-1.3-0.8-2.7-1.2-4.4-1.2c-2.3,0-4.5,0.6-6.7,1.7
			c-2.2,1.2-4.1,2.8-5.7,4.8c-1.7,2-3,4.4-4,7.2c-1,2.8-1.5,5.7-1.5,8.8c0,3.9,0.8,6.9,2.6,8.9c1.7,2.1,4,3.1,7,3.1
			c1.9,0,3.8-0.5,5.7-1.5c1.9-1,3.7-2.3,5.3-3.9h0.2l-0.3,4.6h6l9.7-47.4H233l-2.3,11.7l-1,6.3H229.5z M174.2,51l4.5-22.5
			c1.8-1.8,3.3-3.1,4.7-3.9c1.3-0.8,2.6-1.2,3.8-1.2c2.8,0,4.2,1.4,4.2,4.2c0,0.5-0.1,1-0.2,1.5c-0.1,0.5-0.2,1.2-0.4,1.9L186.7,51
			h7.3l4.2-20.8c0.2-0.9,0.4-1.7,0.4-2.4c0.1-0.7,0.1-1.5,0.1-2.2c0-2.7-0.6-4.7-1.8-6.2c-1.2-1.4-3.2-2.1-6.1-2.1
			c-2.1,0-4.1,0.5-6,1.6c-1.9,1.1-3.7,2.3-5.5,3.8h-0.3l0.3-4.6h-5.9L166.9,51H174.2z M139.7,44.1c-0.9-1.2-1.3-3-1.3-5.4
			c0-2.1,0.3-4.1,0.9-6c0.6-1.9,1.4-3.6,2.4-5c1-1.4,2.2-2.6,3.5-3.4c1.3-0.8,2.7-1.2,4.1-1.2c1,0,2.1,0.3,3,0.9
			c1,0.6,1.8,1.7,2.6,3.1l-2.7,13.2c-1.4,2-2.8,3.4-4.3,4.3c-1.5,0.8-3,1.3-4.5,1.3C141.8,45.9,140.6,45.3,139.7,44.1 M146.1,50.3
			c1.9-1,3.7-2.3,5.3-3.9h0.2l-0.3,4.6h6l6.7-32.9H158l-1.4,3.8h-0.1c-0.8-1.4-1.8-2.6-3.2-3.4c-1.4-0.8-2.9-1.2-4.5-1.2
			c-2.3,0-4.5,0.6-6.7,1.7c-2.2,1.2-4.1,2.8-5.7,4.8c-1.7,2-3,4.4-4,7.2c-1,2.8-1.5,5.7-1.5,8.8c0,3.9,0.9,6.9,2.6,8.9
			c1.7,2.1,4,3.1,7,3.1C142.2,51.8,144.1,51.3,146.1,50.3 M102.7,51l5.2-6.8c0.8-1,1.5-2,2.2-3c0.7-1,1.4-1.9,2-2.9h0.3
			c0.4,0.9,0.7,1.9,1.1,2.9c0.4,1,0.7,2,1.1,3l2.5,6.7h7.5l-6.5-16l13.4-17h-7.8l-4.6,6.4c-0.6,0.9-1.3,1.9-1.9,2.8
			c-0.7,0.9-1.3,1.9-1.9,2.8h-0.3c-0.3-0.9-0.6-1.9-0.9-2.8c-0.3-0.9-0.6-1.8-0.9-2.8l-2.4-6.4h-7.4l6.1,15.4L94.8,51H102.7z
			 M77.8,25.2c1.8-1.6,3.7-2.4,5.7-2.4c2,0,3.5,0.6,4.3,1.8c0.8,1.2,1.2,2.6,1.2,4.3c0,0.5,0,1-0.1,1.5c-0.1,0.5-0.1,0.9-0.2,1.4
			H73.9C74.7,28.9,76,26.7,77.8,25.2 M67.2,43.7c0.7,1.7,1.6,3.2,2.8,4.4c1.2,1.2,2.6,2.1,4.2,2.7c1.6,0.6,3.4,0.9,5.4,0.9
			c2.4,0,4.6-0.3,6.5-1c1.9-0.7,3.6-1.5,4.9-2.4l-2.7-4.6c-0.9,0.7-2,1.3-3.2,1.8c-1.2,0.5-2.4,0.8-3.6,0.8c-1.3,0-2.4-0.2-3.5-0.6
			c-1.1-0.4-2-1-2.8-1.8c-0.7-0.8-1.3-1.8-1.7-3.1c-0.4-1.3-0.5-2.8-0.3-4.5h20.3c0.2-0.5,0.5-1.5,0.9-2.8c0.4-1.3,0.5-2.7,0.5-4.2
			c0-1.7-0.2-3.3-0.6-4.8c-0.4-1.5-1-2.8-1.8-3.9c-0.8-1.1-1.9-2-3.3-2.6c-1.3-0.6-3-0.9-4.9-0.9c-2.2,0-4.4,0.5-6.5,1.5
			c-2.2,1-4.1,2.4-5.9,4.2c-1.7,1.8-3.2,4-4.2,6.5c-1.1,2.5-1.6,5.3-1.6,8.4C66.2,40,66.5,42,67.2,43.7 M57,51.6
			c0.7-0.1,1.3-0.3,1.8-0.5l0.1-5.4c-0.3,0.1-0.5,0.1-0.7,0.2c-0.1,0-0.3,0-0.5,0c-0.8,0-1.2-0.5-1.2-1.4V44c0-0.2,0-0.4,0.1-0.8
			l8-39.7h-7.3l-8,39.3c-0.3,1.3-0.5,2.5-0.5,3.5c0,1.7,0.5,3,1.4,4c0.9,0.9,2.3,1.4,4.3,1.4C55.6,51.8,56.3,51.7,57,51.6 M13.7,51
			l6.2-12.3h14.5L35.3,51h7.6L38.1,7.1h-8.7L5.6,51H13.7z M29.2,19.8c1-2.2,2.1-4.5,3.2-6.9h0.3c0.1,2.4,0.2,4.7,0.4,6.9
			c0.2,2.2,0.3,4.4,0.4,6.7l0.5,6.6H22.6l3.3-6.6C27.1,24.2,28.2,21.9,29.2,19.8"/>
		<path class="st1" d="M293.7,92.8c0.9-3.1-0.4-4.6-3.9-4.6h-7.1c-3,0-5,2-6,4.5l-14.6,50.7c-5.2-16.5-10.4-35.5-15.3-50.7
			c-0.9-2.3-3.1-4.5-6-4.5h-7.4c-3.5,0-4.8,1.5-3.8,4.6l20.1,60.4c1,2.7,3.4,4.5,6.3,5.5l-13.4,40.6c-0.9,3.2,0.4,4.7,3.9,4.7h7.4
			c3.2,0,4.3-2.2,5-4.6L293.7,92.8z M212.4,102.2c1.8,0,3.6-1.4,3.6-3.6v-6.8c0-1.8-1.4-3.6-3.6-3.6H185c-7.4,0-14.6,4.2-14.6,13.1
			v8.4c0,4.3,0.8,10.5,12,15.4l18.1,9.8c3,1.4,3,3.2,3,4.1v4.2c0,0.6-0.6,1.3-1.4,1.3h-27.8c-1.8,0-3.6,1.4-3.6,3.6v6.6
			c0,1.8,1.6,3.6,3.6,3.6h29.9c5.2,0,14.7-2.3,14.7-14v-6.8c0-5-0.8-9.8-11.9-15.4l-19-10.3c-2.2-1.1-2.2-2.6-2.2-3.6v-4.7
			c0-0.6,0.6-1.4,1.4-1.4H212.4z M139.8,154.9c0,2.2,1.8,3.6,3.6,3.6h8.4c2.2,0,3.6-1.8,3.6-3.6v-63c0-1.8-1.4-3.6-3.6-3.6h-8.4
			c-1.8,0-3.6,1.4-3.6,3.6V154.9z M152.4,80.2c1.8,0,3.6-1.5,3.6-3.6v-9.4c0-1.8-1.4-3.6-3.6-3.6h-9.2c-2.1,0-3.6,1.8-3.6,3.6v9.4
			c0,2,1.8,3.6,3.6,3.6H152.4z M108.6,143.3c0,0.6-0.6,1.4-1.4,1.4H88.3c-0.8,0-1.4-0.8-1.4-1.4v-39.6c0-0.9,0.8-1.5,1.6-1.5h18.8
			c0.8,0,1.4,0.8,1.4,1.4V143.3z M124.3,103.7c0-7.9-8-15.4-15.7-15.4h-22c-8.4,0-15.5,6.8-15.5,15.3v39.7c0,7.5,4.9,15.2,15.4,15.2
			h22.8c10,0,15-7.7,15-15.2V103.7z M57.2,77.6c1.8,0,3.6-1.4,3.6-3.6v-7c0-1.8-1.4-3.6-3.6-3.6H19.1c-6.5,0-13.5,5.1-13.5,13.3
			l0.2,78.2c0,1.8,1.4,3.6,3.6,3.6h7.1c1.8,0,3.6-1.4,3.6-3.6l0-38.5h30.3c1.9,0,3.8-1.5,3.8-3.7v-6.9c0-1.8-1.4-3.6-3.8-3.6H20.2
			V78.9c0-0.6,0.5-1.3,1.3-1.3H57.2z"/>
	</g>
	<rect x="5.8" y="171.6" class="st2" width="220.7" height="32.4"/>
	<g>
		<defs>
			<rect id="SVGID_3_" x="5.6" y="3.6" width="288.4" height="200.4"/>
		</defs>
		<clipPath id="SVGID_4_">
			<use xlink:href="#SVGID_3_"  style="overflow:visible;"/>
		</clipPath>
		<path class="st3" d="M213.6,197.4v-2.9H205v-5.7h7V186h-7v-4.9h8.3v-2.9h-11.7v19.2H213.6z M186.4,197.4v-16.3h5.6v-2.9h-14.7v2.9
			h5.6v16.3H186.4z M164.6,197.3c0.9-0.3,1.6-0.7,2.2-1.2c0.6-0.5,1.1-1.1,1.4-1.8c0.3-0.7,0.5-1.4,0.5-2.2c0-0.7-0.1-1.3-0.3-1.9
			c-0.2-0.5-0.5-1-0.8-1.4c-0.3-0.4-0.8-0.8-1.2-1.1c-0.5-0.3-1-0.6-1.6-0.8l-2.6-1.1c-0.4-0.2-0.8-0.3-1.2-0.5
			c-0.4-0.2-0.7-0.4-1-0.6c-0.3-0.2-0.5-0.4-0.7-0.7c-0.2-0.3-0.3-0.6-0.3-1c0-0.7,0.3-1.3,0.8-1.7c0.6-0.4,1.3-0.6,2.2-0.6
			c0.8,0,1.6,0.1,2.3,0.4c0.7,0.3,1.3,0.7,2,1.2l1.8-2.2c-0.8-0.7-1.7-1.3-2.7-1.8c-1.1-0.4-2.1-0.7-3.3-0.7c-1,0-1.8,0.1-2.6,0.4
			c-0.8,0.3-1.5,0.7-2.1,1.1c-0.6,0.5-1,1.1-1.4,1.7c-0.3,0.7-0.5,1.4-0.5,2.1c0,0.7,0.1,1.3,0.3,1.9s0.5,1,0.9,1.4
			c0.4,0.4,0.8,0.8,1.3,1.1c0.5,0.3,0.9,0.5,1.4,0.7l2.7,1.1c0.4,0.2,0.8,0.4,1.2,0.5c0.4,0.2,0.7,0.4,1,0.6
			c0.3,0.2,0.5,0.4,0.6,0.7c0.1,0.3,0.2,0.6,0.2,1c0,0.7-0.3,1.3-0.9,1.8c-0.6,0.5-1.4,0.7-2.5,0.7c-0.9,0-1.8-0.2-2.7-0.6
			c-0.9-0.4-1.7-0.9-2.4-1.6l-2,2.3c0.9,0.9,2,1.6,3.2,2.1c1.2,0.5,2.5,0.7,3.8,0.7C162.8,197.8,163.8,197.6,164.6,197.3
			 M144.8,178.2h-3.4v19.2h3.4V178.2z M118.8,197.4v-8.5h7.9v8.5h3.4v-19.2h-3.4v7.7h-7.9v-7.7h-3.5v19.2H118.8z M95.3,181h2.4
			c1.4,0,2.5,0.2,3.3,0.7c0.7,0.5,1.1,1.3,1.1,2.5c0,2.3-1.4,3.5-4.3,3.5h-2.5V181z M95.3,197.4v-7h2.8c1.1,0,2-0.1,2.9-0.4
			c0.9-0.2,1.7-0.6,2.4-1.1c0.7-0.5,1.2-1.2,1.6-2c0.4-0.8,0.6-1.7,0.6-2.8c0-1.1-0.2-2-0.6-2.8c-0.4-0.8-0.9-1.4-1.6-1.8
			c-0.7-0.5-1.5-0.8-2.4-1c-0.9-0.2-1.9-0.3-3-0.3h-6.1v19.2H95.3z M69.4,197.4l1.5-5.2h6.5l1.5,5.2h3.6l-6.3-19.2h-4l-6.3,19.2
			H69.4z M73.3,184.1c0.3-1.1,0.6-2.1,0.8-3.2h0.1c0.3,1.1,0.6,2.1,0.8,3.2c0.3,1.1,0.6,2.1,0.9,3.1l0.7,2.3h-5l0.7-2.3
			C72.8,186.2,73.1,185.1,73.3,184.1 M46.6,181h2.8c1.3,0,2.3,0.2,3,0.6c0.7,0.4,1.1,1.2,1.1,2.3c0,1.1-0.4,1.9-1.1,2.5
			c-0.7,0.5-1.7,0.8-3,0.8h-2.8V181z M46.6,197.4v-7.5h3l4.2,7.5h3.9l-4.6-8c1.2-0.4,2.1-1,2.8-1.9c0.7-0.9,1.1-2.1,1.1-3.5
			c0-1.1-0.2-2-0.6-2.7c-0.4-0.7-0.9-1.3-1.5-1.7s-1.4-0.8-2.3-1c-0.9-0.2-1.8-0.3-2.8-0.3h-6.6v19.2H46.6z M29.7,197.1
			c1.1-0.4,1.9-1,2.6-1.6V187h-6.8v2.8h3.7v4.1c-0.3,0.3-0.7,0.5-1.2,0.6c-0.5,0.1-1,0.2-1.6,0.2c-2,0-3.4-0.6-4.4-1.9
			s-1.5-3-1.5-5.2c0-1.1,0.1-2,0.4-2.9c0.3-0.9,0.7-1.6,1.2-2.2c0.5-0.6,1.1-1.1,1.8-1.4c0.7-0.3,1.5-0.5,2.4-0.5
			c0.9,0,1.7,0.2,2.3,0.5c0.6,0.3,1.2,0.7,1.7,1.2l1.8-2.2c-0.6-0.6-1.4-1.2-2.4-1.7c-1-0.5-2.1-0.7-3.5-0.7c-1.3,0-2.5,0.2-3.6,0.7
			c-1.1,0.5-2.1,1.1-2.9,2c-0.8,0.9-1.5,1.9-1.9,3.2c-0.5,1.2-0.7,2.6-0.7,4.2c0,1.6,0.2,3,0.7,4.2c0.5,1.2,1.1,2.3,1.9,3.1
			c0.8,0.8,1.8,1.5,2.9,1.9c1.1,0.4,2.3,0.6,3.6,0.6C27.5,197.8,28.7,197.5,29.7,197.1"/>
	</g>
</g>
</svg>
